<?xml version="1.0" standalone="no"?>
<!DOCTYPE svg PUBLIC "-//W3C//DTD SVG 20010904//EN"
 "http://www.w3.org/TR/2001/REC-SVG-20010904/DTD/svg10.dtd">
<svg version="1.0" xmlns="http://www.w3.org/2000/svg"
 width="369.000000pt" height="225.000000pt" viewBox="0 0 369.000000 225.000000"
 preserveAspectRatio="xMidYMid meet">

<g transform="translate(0.000000,225.000000) scale(0.100000,-0.100000)"
fill="#000000" stroke="none">
<path d="M1143 2189 c-223 -118 -393 -281 -393 -378 0 -71 65 -283 119 -389
36 -70 110 -126 229 -172 186 -73 272 -90 446 -90 148 0 280 17 501 64 39 8
142 19 230 25 131 9 176 9 247 -3 93 -15 124 -12 202 23 47 20 95 31 305 66
89 15 162 42 176 65 4 6 4 22 1 36 -8 31 -38 32 -143 3 -131 -36 -286 -69
-324 -69 -45 0 -86 38 -71 67 20 36 50 53 207 118 175 72 239 106 255 135 15
28 12 38 -15 56 -23 15 -28 15 -71 0 -26 -9 -107 -49 -179 -90 -229 -129 -294
-148 -341 -101 -44 44 -14 73 169 166 147 75 267 150 285 179 11 19 11 25 -4
41 -35 39 -56 31 -324 -126 -157 -91 -212 -105 -255 -65 -58 55 -15 109 170
211 128 71 147 88 126 113 -45 54 -214 -34 -364 -189 -52 -54 -77 -92 -137
-213 -61 -122 -84 -158 -136 -210 -96 -96 -203 -138 -421 -167 -117 -15 -130
-15 -283 5 -193 25 -248 44 -323 111 -64 57 -125 168 -153 279 -22 85 -11 126
59 217 64 82 206 183 293 209 53 15 61 15 122 -1 141 -39 223 -100 278 -207
29 -58 31 -126 5 -183 -33 -73 -160 -165 -228 -165 -78 0 -201 110 -223 199
-19 80 19 130 91 119 19 -2 25 -10 27 -37 2 -18 -1 -38 -7 -44 -34 -34 16 -97
77 -97 30 0 45 7 70 33 46 47 41 88 -16 149 -50 54 -179 84 -249 57 -77 -29
-143 -99 -143 -153 0 -49 72 -159 148 -228 50 -46 143 -93 198 -102 91 -16
237 54 333 159 47 51 56 78 48 148 -16 157 -122 325 -240 380 -75 36 -233 87
-267 87 -15 0 -64 -19 -107 -41z"/>
<path d="M865 1067 c-87 -34 -232 -132 -312 -210 -63 -61 -77 -92 -47 -104 22
-8 48 7 144 88 95 79 184 129 230 129 72 0 119 -55 87 -103 -22 -33 -162 -131
-294 -204 -127 -70 -163 -97 -163 -123 0 -27 30 -60 55 -60 32 0 126 56 257
152 153 113 264 158 325 133 34 -14 73 -52 73 -71 0 -18 -54 -69 -123 -116
-33 -23 -121 -67 -194 -99 -188 -80 -224 -108 -208 -158 8 -27 44 -40 84 -29
34 10 120 60 223 130 79 53 216 118 250 118 32 0 68 -31 68 -58 0 -22 -32 -53
-79 -77 -18 -9 -54 -32 -80 -50 -25 -18 -87 -58 -137 -88 -50 -31 -96 -63
-103 -70 -16 -20 -3 -47 23 -47 28 0 217 105 332 185 106 75 143 113 185 197
63 125 163 235 258 283 106 53 183 65 461 72 341 7 413 -9 512 -115 66 -70 88
-120 100 -226 14 -118 5 -175 -35 -228 -65 -85 -282 -204 -392 -215 -126 -13
-227 54 -292 195 -33 70 -37 87 -41 183 l-4 107 39 39 c48 48 127 73 231 73
90 0 128 -15 175 -71 58 -67 68 -126 29 -171 -23 -28 -46 -22 -103 27 -128
109 -232 38 -133 -92 57 -75 113 -88 226 -53 172 53 195 207 56 365 -76 86
-154 107 -328 86 -136 -17 -174 -29 -220 -68 -57 -49 -80 -99 -87 -191 -14
-190 92 -379 260 -462 52 -25 80 -32 153 -36 80 -5 98 -3 175 24 96 32 288
137 351 191 59 50 68 81 68 220 0 185 -40 287 -160 409 -70 71 -151 107 -297
133 -106 18 -147 20 -408 16 -159 -3 -380 -10 -489 -15 -214 -11 -280 -4 -468
48 -80 22 -186 25 -233 7z"/>
</g>
</svg>
